<svg width="1018" height="1018" viewBox="0 0 1018 1018" fill="none" xmlns="http://www.w3.org/2000/svg">
<g filter="url(#filter0_d_8_43)">
<g clip-path="url(#clip0_8_43)">
<rect x="18" y="18" width="1000" height="1000" rx="500" fill="#008080"/>
<g clip-path="url(#clip1_8_43)">
<g filter="url(#filter1_d_8_43)">
<path d="M236.331 746.653C228.517 761.979 227.064 779.769 232.286 796.16C237.508 812.551 248.984 826.221 264.224 834.202C279.463 842.184 297.235 843.833 313.682 838.792C330.13 833.751 343.925 822.426 352.074 807.276M763.721 663.308C772.784 658.337 780.42 651.124 785.898 642.359C791.377 633.593 794.515 623.569 795.012 613.244C796.009 601.822 793.982 590.338 789.135 579.947C784.288 569.556 776.792 560.623 767.4 554.047C758.008 547.47 747.05 543.481 735.628 542.481C724.206 541.48 712.721 543.503 702.329 548.346M424.21 914.195C424.494 931.333 431.502 947.672 443.721 959.691C455.941 971.71 472.395 978.446 489.535 978.446C506.675 978.445 523.128 971.71 535.348 959.691C547.568 947.672 554.575 931.332 554.859 914.195M912.207 491.13C924.07 445.996 922.565 398.387 907.874 354.092C893.183 309.798 865.939 270.726 829.455 241.627C793.132 210.422 748.733 190.112 701.373 183.035C654.013 175.958 605.617 182.402 561.758 201.624C517.9 220.847 480.363 252.067 453.47 291.688C426.577 331.309 411.422 377.721 409.75 425.578M560.397 666.67C592.08 682.416 627.08 690.327 662.454 689.738C697.829 689.149 732.546 680.077 763.687 663.285" stroke="#D4AF37" stroke-width="20" stroke-linecap="round" stroke-linejoin="round" shape-rendering="crispEdges"/>
</g>
<g filter="url(#filter2_d_8_43)">
<path d="M912.224 491.142C908.678 502.046 902.326 511.825 893.804 519.497C885.282 527.168 874.891 532.461 863.676 534.845C852.46 537.229 840.815 536.619 829.91 533.077C819.004 529.535 809.223 523.185 801.549 514.666C793.942 505.631 788.761 494.808 786.492 483.217C784.223 471.626 784.942 459.648 788.581 448.412C798.231 393.622 766.344 348.43 715.423 326.026C690.677 315.128 662.99 312.851 636.796 319.56C610.602 326.269 587.418 341.576 570.958 363.028C554.498 384.48 545.714 410.836 546.014 437.873C546.314 464.911 555.68 491.066 572.612 512.147C607.454 555.517 651.902 571.838 702.312 548.334M424.21 914.195L409.767 425.59M560.397 666.67L554.842 914.183M432.037 330.041L236.319 746.67M417.118 674.612L352.074 807.276M208.307 430.612C200.856 434.964 194.34 440.75 189.137 447.635C183.934 454.519 180.146 462.366 177.993 470.723C175.839 479.079 175.363 487.78 176.59 496.322C177.818 504.864 180.726 513.078 185.146 520.489C189.566 527.901 195.41 534.364 202.342 539.504C209.273 544.645 217.155 548.361 225.53 550.438C233.906 552.516 242.611 552.914 251.141 551.608C259.671 550.303 267.858 547.321 275.23 542.834L356.124 491.667M510.161 232.453L208.336 430.607" stroke="#D4AF37" stroke-width="20" stroke-linecap="round" stroke-linejoin="round" shape-rendering="crispEdges"/>
</g>
</g>
</g>
<rect x="28" y="28" width="980" height="980" rx="490" stroke="#D4AF37" stroke-width="20"/>
</g>
<defs>
<filter id="filter0_d_8_43" x="0" y="0" width="1018" height="1018" filterUnits="userSpaceOnUse" color-interpolation-filters="sRGB">
<feFlood flood-opacity="0" result="BackgroundImageFix"/>
<feColorMatrix in="SourceAlpha" type="matrix" values="0 0 0 0 0 0 0 0 0 0 0 0 0 0 0 0 0 0 127 0" result="hardAlpha"/>
<feMorphology radius="4" operator="dilate" in="SourceAlpha" result="effect1_dropShadow_8_43"/>
<feOffset dx="-10" dy="-10"/>
<feGaussianBlur stdDeviation="2"/>
<feComposite in2="hardAlpha" operator="out"/>
<feColorMatrix type="matrix" values="0 0 0 0 0 0 0 0 0 0 0 0 0 0 0 0 0 0 0.25 0"/>
<feBlend mode="normal" in2="BackgroundImageFix" result="effect1_dropShadow_8_43"/>
<feBlend mode="normal" in="SourceGraphic" in2="effect1_dropShadow_8_43" result="shape"/>
</filter>
<filter id="filter1_d_8_43" x="215.203" y="170.243" width="718.916" height="832.202" filterUnits="userSpaceOnUse" color-interpolation-filters="sRGB">
<feFlood flood-opacity="0" result="BackgroundImageFix"/>
<feColorMatrix in="SourceAlpha" type="matrix" values="0 0 0 0 0 0 0 0 0 0 0 0 0 0 0 0 0 0 127 0" result="hardAlpha"/>
<feOffset dy="10"/>
<feGaussianBlur stdDeviation="2"/>
<feComposite in2="hardAlpha" operator="out"/>
<feColorMatrix type="matrix" values="0 0 0 0 0 0 0 0 0 0 0 0 0 0 0 0 0 0 0.25 0"/>
<feBlend mode="normal" in2="BackgroundImageFix" result="effect1_dropShadow_8_43"/>
<feBlend mode="normal" in="SourceGraphic" in2="effect1_dropShadow_8_43" result="shape"/>
</filter>
<filter id="filter2_d_8_43" x="161.926" y="222.452" width="764.301" height="715.744" filterUnits="userSpaceOnUse" color-interpolation-filters="sRGB">
<feFlood flood-opacity="0" result="BackgroundImageFix"/>
<feColorMatrix in="SourceAlpha" type="matrix" values="0 0 0 0 0 0 0 0 0 0 0 0 0 0 0 0 0 0 127 0" result="hardAlpha"/>
<feOffset dy="10"/>
<feGaussianBlur stdDeviation="2"/>
<feComposite in2="hardAlpha" operator="out"/>
<feColorMatrix type="matrix" values="0 0 0 0 0 0 0 0 0 0 0 0 0 0 0 0 0 0 0.25 0"/>
<feBlend mode="normal" in2="BackgroundImageFix" result="effect1_dropShadow_8_43"/>
<feBlend mode="normal" in="SourceGraphic" in2="effect1_dropShadow_8_43" result="shape"/>
</filter>
<clipPath id="clip0_8_43">
<rect x="18" y="18" width="1000" height="1000" rx="500" fill="white"/>
</clipPath>
<clipPath id="clip1_8_43">
<rect width="1000" height="1000" fill="white" transform="matrix(0.819152 0.573576 0.573576 -0.819152 -178 641)"/>
</clipPath>
</defs>
</svg>
